<svg width="384" height="126" viewBox="0 0 384 126" fill="none" xmlns="http://www.w3.org/2000/svg">
<path d="M0 95.9999L11.5909 26.1818H20.0455L14.9091 57H52.4091L57.2727 26.1818H65.7273L54.1364 95.9999H45.6818L51.4091 64H13.4091L8.45455 95.9999H0Z" fill="black"/>
<path d="M13.4515 64L14.6918 57H26.4515L22.4091 64H13.4515Z" fill="#FF3E3E"/>
<path d="M22.4515 64L26.4515 57H38.9515L42.4515 64H22.4515Z" fill="#22F068"/>
<path d="M42.0093 64L38.4515 57H52.4515L51.3888 64H42.0093Z" fill="#2441DC"/>
<path d="M104.029 73.112C100.093 73.24 96.7331 73.56 93.9491 74.072C91.1971 74.552 88.9411 75.192 87.1811 75.992C85.4531 76.792 84.1891 77.736 83.3891 78.824C82.6211 79.912 82.2371 81.128 82.2371 82.472C82.2371 83.752 82.4451 84.856 82.8611 85.784C83.2771 86.712 83.8371 87.48 84.5411 88.088C85.2771 88.664 86.1251 89.096 87.0851 89.384C88.0771 89.64 89.1331 89.768 90.2531 89.768C91.7571 89.768 93.1331 89.624 94.3811 89.336C95.6291 89.016 96.7971 88.568 97.8851 87.992C99.0051 87.416 100.061 86.728 101.053 85.928C102.077 85.128 103.069 84.216 104.029 83.192V73.112ZM76.4291 53.24C79.1171 50.648 82.0131 48.712 85.1171 47.432C88.2211 46.152 91.6611 45.512 95.4371 45.512C98.1571 45.512 100.573 45.96 102.685 46.856C104.797 47.752 106.573 49 108.013 50.6C109.453 52.2 110.541 54.136 111.277 56.408C112.013 58.68 112.381 61.176 112.381 63.896V95H108.589C107.757 95 107.117 94.872 106.669 94.616C106.221 94.328 105.869 93.784 105.613 92.984L104.653 88.376C103.373 89.56 102.125 90.616 100.909 91.544C99.6931 92.44 98.4131 93.208 97.0691 93.848C95.7251 94.456 94.2851 94.92 92.7491 95.24C91.2451 95.592 89.5651 95.768 87.7091 95.768C85.8211 95.768 84.0451 95.512 82.3811 95C80.7171 94.456 79.2611 93.656 78.0131 92.6C76.7971 91.544 75.8211 90.216 75.0851 88.616C74.3811 86.984 74.0291 85.064 74.0291 82.856C74.0291 80.936 74.5571 79.096 75.6131 77.336C76.6691 75.544 78.3811 73.96 80.7491 72.584C83.1171 71.208 86.2051 70.088 90.0131 69.224C93.8211 68.328 98.4931 67.816 104.029 67.688V63.896C104.029 60.12 103.213 57.272 101.581 55.352C99.9491 53.4 97.5651 52.424 94.4291 52.424C92.3171 52.424 90.5411 52.696 89.1011 53.24C87.6931 53.752 86.4611 54.344 85.4051 55.016C84.3811 55.656 83.4851 56.248 82.7171 56.792C81.9811 57.304 81.2451 57.56 80.5091 57.56C79.9331 57.56 79.4371 57.416 79.0211 57.128C78.6051 56.808 78.2531 56.424 77.9651 55.976L76.4291 53.24ZM139.668 95.768C135.828 95.768 132.868 94.696 130.788 92.552C128.74 90.408 127.716 87.32 127.716 83.288V53.528H121.86C121.348 53.528 120.916 53.384 120.564 53.096C120.212 52.776 120.036 52.296 120.036 51.656V48.248L128.004 47.24L129.972 32.216C130.068 31.736 130.276 31.352 130.596 31.064C130.948 30.744 131.396 30.584 131.94 30.584H136.26V47.336H150.324V53.528H136.26V82.712C136.26 84.76 136.756 86.28 137.748 87.272C138.74 88.264 140.02 88.76 141.588 88.76C142.484 88.76 143.252 88.648 143.892 88.424C144.564 88.168 145.14 87.896 145.62 87.608C146.1 87.32 146.5 87.064 146.82 86.84C147.172 86.584 147.476 86.456 147.732 86.456C148.18 86.456 148.58 86.728 148.932 87.272L151.428 91.352C149.956 92.728 148.18 93.816 146.1 94.616C144.02 95.384 141.876 95.768 139.668 95.768ZM179.361 45.608C182.913 45.608 186.113 46.2 188.961 47.384C191.809 48.568 194.241 50.248 196.257 52.424C198.273 54.6 199.809 57.24 200.865 60.344C201.953 63.416 202.497 66.856 202.497 70.664C202.497 74.504 201.953 77.96 200.865 81.032C199.809 84.104 198.273 86.728 196.257 88.904C194.241 91.08 191.809 92.76 188.961 93.944C186.113 95.096 182.913 95.672 179.361 95.672C175.777 95.672 172.545 95.096 169.665 93.944C166.817 92.76 164.385 91.08 162.369 88.904C160.353 86.728 158.801 84.104 157.713 81.032C156.657 77.96 156.129 74.504 156.129 70.664C156.129 66.856 156.657 63.416 157.713 60.344C158.801 57.24 160.353 54.6 162.369 52.424C164.385 50.248 166.817 48.568 169.665 47.384C172.545 46.2 175.777 45.608 179.361 45.608ZM179.361 89C184.161 89 187.745 87.4 190.113 84.2C192.481 80.968 193.665 76.472 193.665 70.712C193.665 64.92 192.481 60.408 190.113 57.176C187.745 53.944 184.161 52.328 179.361 52.328C176.929 52.328 174.801 52.744 172.977 53.576C171.185 54.408 169.681 55.608 168.465 57.176C167.281 58.744 166.385 60.68 165.777 62.984C165.201 65.256 164.913 67.832 164.913 70.712C164.913 76.472 166.097 80.968 168.465 84.2C170.865 87.4 174.497 89 179.361 89ZM221.445 56.12C222.981 52.792 224.869 50.2 227.109 48.344C229.349 46.456 232.085 45.512 235.317 45.512C236.341 45.512 237.317 45.624 238.245 45.848C239.205 46.072 240.053 46.424 240.789 46.904L240.165 53.288C239.973 54.088 239.493 54.488 238.725 54.488C238.277 54.488 237.621 54.392 236.757 54.2C235.893 54.008 234.917 53.912 233.829 53.912C232.293 53.912 230.917 54.136 229.701 54.584C228.517 55.032 227.445 55.704 226.485 56.6C225.557 57.464 224.709 58.552 223.941 59.864C223.205 61.144 222.533 62.616 221.925 64.28V95H213.333V46.376H218.229C219.157 46.376 219.797 46.552 220.149 46.904C220.501 47.256 220.741 47.864 220.869 48.728L221.445 56.12ZM256.366 53.432C257.422 52.248 258.542 51.176 259.726 50.216C260.91 49.256 262.158 48.44 263.47 47.768C264.814 47.064 266.222 46.536 267.694 46.184C269.198 45.8 270.814 45.608 272.542 45.608C275.198 45.608 277.534 46.056 279.55 46.952C281.598 47.816 283.294 49.064 284.638 50.696C286.014 52.296 287.054 54.232 287.758 56.504C288.462 58.776 288.814 61.288 288.814 64.04V95H280.222V64.04C280.222 60.36 279.374 57.512 277.678 55.496C276.014 53.448 273.47 52.424 270.046 52.424C267.518 52.424 265.15 53.032 262.942 54.248C260.766 55.464 258.75 57.112 256.894 59.192V95H248.302V46.376H253.438C254.654 46.376 255.406 46.968 255.694 48.152L256.366 53.432ZM322.329 45.608C325.881 45.608 329.081 46.2 331.929 47.384C334.777 48.568 337.209 50.248 339.225 52.424C341.241 54.6 342.777 57.24 343.833 60.344C344.921 63.416 345.465 66.856 345.465 70.664C345.465 74.504 344.921 77.96 343.833 81.032C342.777 84.104 341.241 86.728 339.225 88.904C337.209 91.08 334.777 92.76 331.929 93.944C329.081 95.096 325.881 95.672 322.329 95.672C318.745 95.672 315.513 95.096 312.633 93.944C309.785 92.76 307.353 91.08 305.337 88.904C303.321 86.728 301.769 84.104 300.681 81.032C299.625 77.96 299.097 74.504 299.097 70.664C299.097 66.856 299.625 63.416 300.681 60.344C301.769 57.24 303.321 54.6 305.337 52.424C307.353 50.248 309.785 48.568 312.633 47.384C315.513 46.2 318.745 45.608 322.329 45.608ZM322.329 89C327.129 89 330.713 87.4 333.081 84.2C335.449 80.968 336.633 76.472 336.633 70.712C336.633 64.92 335.449 60.408 333.081 57.176C330.713 53.944 327.129 52.328 322.329 52.328C319.897 52.328 317.769 52.744 315.945 53.576C314.153 54.408 312.649 55.608 311.433 57.176C310.249 58.744 309.353 60.68 308.745 62.984C308.169 65.256 307.881 67.832 307.881 70.712C307.881 76.472 309.065 80.968 311.433 84.2C313.833 87.4 317.465 89 322.329 89ZM370.386 95.768C366.546 95.768 363.586 94.696 361.506 92.552C359.458 90.408 358.434 87.32 358.434 83.288V53.528H352.578C352.066 53.528 351.634 53.384 351.282 53.096C350.93 52.776 350.754 52.296 350.754 51.656V48.248L358.722 47.24L360.69 32.216C360.786 31.736 360.994 31.352 361.314 31.064C361.666 30.744 362.114 30.584 362.658 30.584H366.978V47.336H381.042V53.528H366.978V82.712C366.978 84.76 367.474 86.28 368.466 87.272C369.458 88.264 370.738 88.76 372.306 88.76C373.202 88.76 373.97 88.648 374.61 88.424C375.282 88.168 375.858 87.896 376.338 87.608C376.818 87.32 377.218 87.064 377.538 86.84C377.89 86.584 378.194 86.456 378.45 86.456C378.898 86.456 379.298 86.728 379.65 87.272L382.146 91.352C380.674 92.728 378.898 93.816 376.818 94.616C374.738 95.384 372.594 95.768 370.386 95.768Z" fill="black"/>
<path d="M157.743 122H156.303V116.672H150.447V122H149.007V110.576H150.447V115.408H156.303V110.576H157.743V122ZM163.922 113.28C164.967 113.28 165.741 113.509 166.242 113.968C166.743 114.427 166.994 115.157 166.994 116.16V122H165.97L165.698 120.784H165.634C165.389 121.093 165.133 121.355 164.866 121.568C164.61 121.771 164.311 121.92 163.97 122.016C163.639 122.112 163.234 122.16 162.754 122.16C162.242 122.16 161.778 122.069 161.362 121.888C160.957 121.707 160.637 121.429 160.402 121.056C160.167 120.672 160.05 120.192 160.05 119.616C160.05 118.763 160.386 118.107 161.058 117.648C161.73 117.179 162.765 116.923 164.162 116.88L165.618 116.832V116.32C165.618 115.605 165.463 115.109 165.154 114.832C164.845 114.555 164.407 114.416 163.842 114.416C163.394 114.416 162.967 114.485 162.562 114.624C162.157 114.752 161.778 114.901 161.426 115.072L160.994 114.016C161.367 113.813 161.81 113.643 162.322 113.504C162.834 113.355 163.367 113.28 163.922 113.28ZM164.338 117.856C163.271 117.899 162.53 118.069 162.114 118.368C161.709 118.667 161.506 119.088 161.506 119.632C161.506 120.112 161.65 120.464 161.938 120.688C162.237 120.912 162.615 121.024 163.074 121.024C163.799 121.024 164.402 120.827 164.882 120.432C165.362 120.027 165.602 119.408 165.602 118.576V117.808L164.338 117.856ZM172.507 121.008C172.72 121.008 172.939 120.992 173.163 120.96C173.387 120.917 173.568 120.875 173.707 120.832V121.904C173.557 121.979 173.344 122.037 173.067 122.08C172.789 122.133 172.523 122.16 172.267 122.16C171.819 122.16 171.403 122.085 171.019 121.936C170.645 121.776 170.341 121.504 170.107 121.12C169.872 120.736 169.755 120.197 169.755 119.504V114.512H168.539V113.84L169.771 113.28L170.331 111.456H171.163V113.424H173.643V114.512H171.163V119.472C171.163 119.995 171.285 120.384 171.531 120.64C171.787 120.885 172.112 121.008 172.507 121.008ZM178.736 113.264C179.472 113.264 180.101 113.424 180.624 113.744C181.157 114.064 181.563 114.517 181.84 115.104C182.128 115.68 182.272 116.357 182.272 117.136V117.984H176.4C176.421 118.955 176.667 119.696 177.136 120.208C177.616 120.709 178.283 120.96 179.136 120.96C179.68 120.96 180.16 120.912 180.576 120.816C181.003 120.709 181.44 120.56 181.888 120.368V121.6C181.451 121.792 181.019 121.931 180.592 122.016C180.165 122.112 179.659 122.16 179.072 122.16C178.261 122.16 177.541 121.995 176.912 121.664C176.293 121.333 175.808 120.843 175.456 120.192C175.115 119.531 174.944 118.725 174.944 117.776C174.944 116.837 175.099 116.032 175.408 115.36C175.728 114.688 176.171 114.171 176.736 113.808C177.312 113.445 177.979 113.264 178.736 113.264ZM178.72 114.416C178.048 114.416 177.515 114.635 177.12 115.072C176.736 115.499 176.507 116.096 176.432 116.864H180.8C180.8 116.373 180.725 115.947 180.576 115.584C180.427 115.221 180.197 114.939 179.888 114.736C179.589 114.523 179.2 114.416 178.72 114.416ZM197.85 116.272C197.85 117.157 197.738 117.963 197.514 118.688C197.29 119.403 196.954 120.021 196.506 120.544C196.068 121.067 195.519 121.467 194.858 121.744C194.207 122.021 193.45 122.16 192.586 122.16C191.69 122.16 190.911 122.021 190.25 121.744C189.588 121.456 189.039 121.056 188.602 120.544C188.164 120.021 187.839 119.397 187.626 118.672C187.412 117.947 187.306 117.141 187.306 116.256C187.306 115.083 187.498 114.059 187.882 113.184C188.266 112.309 188.847 111.627 189.626 111.136C190.415 110.645 191.407 110.4 192.602 110.4C193.743 110.4 194.703 110.645 195.482 111.136C196.26 111.616 196.847 112.299 197.242 113.184C197.647 114.059 197.85 115.088 197.85 116.272ZM188.826 116.272C188.826 117.232 188.959 118.059 189.226 118.752C189.492 119.445 189.903 119.979 190.458 120.352C191.023 120.725 191.732 120.912 192.586 120.912C193.45 120.912 194.154 120.725 194.698 120.352C195.252 119.979 195.663 119.445 195.93 118.752C196.196 118.059 196.33 117.232 196.33 116.272C196.33 114.832 196.031 113.707 195.434 112.896C194.836 112.075 193.892 111.664 192.602 111.664C191.738 111.664 191.023 111.851 190.458 112.224C189.903 112.587 189.492 113.115 189.226 113.808C188.959 114.491 188.826 115.312 188.826 116.272ZM204.19 113.264C204.35 113.264 204.52 113.275 204.702 113.296C204.894 113.307 205.059 113.328 205.198 113.36L205.022 114.656C204.883 114.624 204.728 114.597 204.558 114.576C204.398 114.555 204.243 114.544 204.094 114.544C203.763 114.544 203.448 114.613 203.15 114.752C202.851 114.891 202.584 115.088 202.35 115.344C202.115 115.589 201.928 115.888 201.79 116.24C201.662 116.592 201.598 116.987 201.598 117.424V122H200.19V113.424H201.342L201.502 114.992H201.566C201.747 114.672 201.966 114.384 202.222 114.128C202.478 113.861 202.771 113.653 203.102 113.504C203.432 113.344 203.795 113.264 204.19 113.264ZM219.281 122H217.601L211.489 112.512H211.425C211.436 112.704 211.447 112.917 211.457 113.152C211.479 113.387 211.495 113.643 211.505 113.92C211.516 114.187 211.527 114.464 211.537 114.752C211.548 115.04 211.553 115.328 211.553 115.616V122H210.225V110.576H211.889L217.985 120.032H218.049C218.039 119.904 218.028 119.728 218.017 119.504C218.007 119.269 217.996 119.013 217.985 118.736C217.975 118.448 217.964 118.155 217.953 117.856C217.943 117.557 217.937 117.28 217.937 117.024V110.576H219.281V122ZM229.646 117.696C229.646 118.411 229.55 119.045 229.358 119.6C229.176 120.144 228.91 120.608 228.558 120.992C228.216 121.376 227.795 121.669 227.294 121.872C226.803 122.064 226.254 122.16 225.646 122.16C225.08 122.16 224.558 122.064 224.078 121.872C223.598 121.669 223.182 121.376 222.83 120.992C222.478 120.608 222.2 120.144 221.998 119.6C221.806 119.045 221.71 118.411 221.71 117.696C221.71 116.747 221.87 115.947 222.19 115.296C222.51 114.635 222.968 114.133 223.566 113.792C224.163 113.44 224.872 113.264 225.694 113.264C226.472 113.264 227.155 113.44 227.742 113.792C228.339 114.133 228.803 114.635 229.134 115.296C229.475 115.947 229.646 116.747 229.646 117.696ZM223.166 117.696C223.166 118.368 223.251 118.955 223.422 119.456C223.603 119.947 223.88 120.325 224.254 120.592C224.627 120.859 225.102 120.992 225.678 120.992C226.254 120.992 226.728 120.859 227.102 120.592C227.475 120.325 227.747 119.947 227.918 119.456C228.099 118.955 228.19 118.368 228.19 117.696C228.19 117.013 228.099 116.432 227.918 115.952C227.736 115.472 227.459 115.104 227.086 114.848C226.723 114.581 226.248 114.448 225.662 114.448C224.787 114.448 224.152 114.736 223.758 115.312C223.363 115.888 223.166 116.683 223.166 117.696ZM234.741 121.008C234.954 121.008 235.173 120.992 235.397 120.96C235.621 120.917 235.802 120.875 235.941 120.832V121.904C235.792 121.979 235.578 122.037 235.301 122.08C235.024 122.133 234.757 122.16 234.501 122.16C234.053 122.16 233.637 122.085 233.253 121.936C232.88 121.776 232.576 121.504 232.341 121.12C232.106 120.736 231.989 120.197 231.989 119.504V114.512H230.773V113.84L232.005 113.28L232.565 111.456H233.397V113.424H235.877V114.512H233.397V119.472C233.397 119.995 233.52 120.384 233.765 120.64C234.021 120.885 234.346 121.008 234.741 121.008Z" fill="black"/>
</svg>
